<svg width="160" height="160" viewBox="0 0 160 160" fill="none" xmlns="http://www.w3.org/2000/svg">
<path d="M139.651 113.136C148.679 121.18 142.682 136 130.558 136H73.424C69.1342 136.016 64.8835 135.199 60.917 133.594C56.9505 131.99 53.3466 129.63 50.3133 126.651C47.2799 123.672 44.8771 120.132 43.2433 116.237C41.6096 112.341 40.7772 108.166 40.7943 103.953V103.636C25.9626 100.66 15 87.9299 15 72.6666C15 55.2499 29.3158 41 47.2428 41H63.3643C65.2988 41 66.5885 39.5433 66.5885 37.8333C66.5885 36.1233 65.2988 34.6666 63.3643 34.6666H47.2428V22H63.3643C72.2633 22 79.4857 29.1567 79.4857 37.8333C79.4857 46.6366 72.2633 53.6666 63.3643 53.6666H47.2428C36.5382 53.6666 27.8971 62.0899 27.8971 72.6666C27.8971 81.3432 33.8298 88.4999 41.6971 90.8432C45.3083 76.9099 58.0119 66.3332 73.424 66.3332C78.5829 66.3332 83.7417 67.7266 88.2557 69.8166C79.1632 74.8199 73.0371 84.0665 73.0371 94.8332C73.0371 102.75 76.2614 109.843 81.6137 114.91L86.1277 110.476C81.9361 106.613 79.4857 100.976 79.4857 94.8332C79.4857 78.4299 94.5753 72.6666 102.056 72.6666C115.469 72.6666 127.527 84.6365 124.239 99.4565L139.651 113.136ZM118.177 123.333C121.788 123.333 124.626 120.546 124.626 117C124.626 113.453 121.788 110.666 118.177 110.666C114.566 110.666 111.729 113.453 111.729 117C111.729 120.546 114.566 123.333 118.177 123.333Z" fill="#8381E8"/>
</svg>
